<?xml version="1.0" encoding="UTF-8" standalone="no"?>
<!DOCTYPE svg PUBLIC "-//W3C//DTD SVG 1.1//EN"
 "http://www.w3.org/Graphics/SVG/1.1/DTD/svg11.dtd">
<!-- Generated by graphviz version 2.38.0 (20140413.2041)
 -->
<!-- Title: %3 Pages: 1 -->
<svg width="2902pt" height="392pt"
 viewBox="0.00 0.00 2901.84 392.00" xmlns="http://www.w3.org/2000/svg" xmlns:xlink="http://www.w3.org/1999/xlink">
<g id="graph0" class="graph" transform="scale(1 1) rotate(0) translate(4 388)">
<title>%3</title>
<polygon fill="white" stroke="none" points="-4,4 -4,-388 2897.84,-388 2897.84,4 -4,4"/>
<!-- 0 -->
<g id="node1" class="node"><title>0</title>
<ellipse fill="none" stroke="black" cx="1558.54" cy="-366" rx="102.882" ry="18"/>
<text text-anchor="middle" x="1558.54" y="-362.3" font-family="Times New Roman,serif" font-size="14.00">momentum&lt;0.572289169</text>
</g>
<!-- 1 -->
<g id="node2" class="node"><title>1</title>
<ellipse fill="none" stroke="black" cx="1066.54" cy="-279" rx="77.1866" ry="18"/>
<text text-anchor="middle" x="1066.54" y="-275.3" font-family="Times New Roman,serif" font-size="14.00">ema&lt;0.360827833</text>
</g>
<!-- 0&#45;&gt;1 -->
<g id="edge1" class="edge"><title>0&#45;&gt;1</title>
<path fill="none" stroke="#0000ff" d="M1488.31,-352.867C1394.68,-336.691 1229.94,-308.23 1136.47,-292.08"/>
<polygon fill="#0000ff" stroke="#0000ff" points="1136.99,-288.619 1126.54,-290.365 1135.8,-295.517 1136.99,-288.619"/>
<text text-anchor="middle" x="1377.04" y="-318.8" font-family="Times New Roman,serif" font-size="14.00">yes, missing</text>
</g>
<!-- 2 -->
<g id="node3" class="node"><title>2</title>
<ellipse fill="none" stroke="black" cx="1896.54" cy="-279" rx="102.882" ry="18"/>
<text text-anchor="middle" x="1896.54" y="-275.3" font-family="Times New Roman,serif" font-size="14.00">momentum&lt;0.726583719</text>
</g>
<!-- 0&#45;&gt;2 -->
<g id="edge2" class="edge"><title>0&#45;&gt;2</title>
<path fill="none" stroke="#ff0000" d="M1614.74,-350.869C1674.16,-335.924 1767.83,-312.368 1830.68,-296.562"/>
<polygon fill="#ff0000" stroke="#ff0000" points="1831.65,-299.928 1840.5,-294.094 1829.94,-293.139 1831.65,-299.928"/>
<text text-anchor="middle" x="1756.04" y="-318.8" font-family="Times New Roman,serif" font-size="14.00">no</text>
</g>
<!-- 3 -->
<g id="node4" class="node"><title>3</title>
<ellipse fill="none" stroke="black" cx="558.543" cy="-192" rx="102.882" ry="18"/>
<text text-anchor="middle" x="558.543" y="-188.3" font-family="Times New Roman,serif" font-size="14.00">momentum&lt;0.255538285</text>
</g>
<!-- 1&#45;&gt;3 -->
<g id="edge3" class="edge"><title>1&#45;&gt;3</title>
<path fill="none" stroke="#0000ff" d="M1005.77,-267.831C914.527,-252.564 741.983,-223.694 639.948,-206.621"/>
<polygon fill="#0000ff" stroke="#0000ff" points="640.436,-203.154 629.995,-204.956 639.281,-210.058 640.436,-203.154"/>
<text text-anchor="middle" x="878.043" y="-231.8" font-family="Times New Roman,serif" font-size="14.00">yes, missing</text>
</g>
<!-- 4 -->
<g id="node5" class="node"><title>4</title>
<ellipse fill="none" stroke="black" cx="1066.54" cy="-192" rx="102.882" ry="18"/>
<text text-anchor="middle" x="1066.54" y="-188.3" font-family="Times New Roman,serif" font-size="14.00">momentum&lt;0.472017109</text>
</g>
<!-- 1&#45;&gt;4 -->
<g id="edge4" class="edge"><title>1&#45;&gt;4</title>
<path fill="none" stroke="#ff0000" d="M1066.54,-260.799C1066.54,-249.163 1066.54,-233.548 1066.54,-220.237"/>
<polygon fill="#ff0000" stroke="#ff0000" points="1070.04,-220.175 1066.54,-210.175 1063.04,-220.175 1070.04,-220.175"/>
<text text-anchor="middle" x="1074.04" y="-231.8" font-family="Times New Roman,serif" font-size="14.00">no</text>
</g>
<!-- 5 -->
<g id="node18" class="node"><title>5</title>
<ellipse fill="none" stroke="black" cx="1896.54" cy="-192" rx="102.882" ry="18"/>
<text text-anchor="middle" x="1896.54" y="-188.3" font-family="Times New Roman,serif" font-size="14.00">momentum&lt;0.642052054</text>
</g>
<!-- 2&#45;&gt;5 -->
<g id="edge17" class="edge"><title>2&#45;&gt;5</title>
<path fill="none" stroke="#0000ff" d="M1896.54,-260.799C1896.54,-249.163 1896.54,-233.548 1896.54,-220.237"/>
<polygon fill="#0000ff" stroke="#0000ff" points="1900.04,-220.175 1896.54,-210.175 1893.04,-220.175 1900.04,-220.175"/>
<text text-anchor="middle" x="1931.04" y="-231.8" font-family="Times New Roman,serif" font-size="14.00">yes, missing</text>
</g>
<!-- 6 -->
<g id="node19" class="node"><title>6</title>
<ellipse fill="none" stroke="black" cx="2361.54" cy="-192" rx="102.882" ry="18"/>
<text text-anchor="middle" x="2361.54" y="-188.3" font-family="Times New Roman,serif" font-size="14.00">momentum&lt;0.826855779</text>
</g>
<!-- 2&#45;&gt;6 -->
<g id="edge18" class="edge"><title>2&#45;&gt;6</title>
<path fill="none" stroke="#ff0000" d="M1965.16,-265.458C2049.93,-249.961 2193.85,-223.653 2282.97,-207.362"/>
<polygon fill="#ff0000" stroke="#ff0000" points="2283.82,-210.765 2293.03,-205.524 2282.56,-203.879 2283.82,-210.765"/>
<text text-anchor="middle" x="2165.04" y="-231.8" font-family="Times New Roman,serif" font-size="14.00">no</text>
</g>
<!-- 7 -->
<g id="node6" class="node"><title>7</title>
<ellipse fill="none" stroke="black" cx="265.543" cy="-105" rx="102.882" ry="18"/>
<text text-anchor="middle" x="265.543" y="-101.3" font-family="Times New Roman,serif" font-size="14.00">momentum&lt;0.150408089</text>
</g>
<!-- 3&#45;&gt;7 -->
<g id="edge5" class="edge"><title>3&#45;&gt;7</title>
<path fill="none" stroke="#0000ff" d="M507.84,-176.291C457.265,-161.619 379.565,-139.078 325.853,-123.496"/>
<polygon fill="#0000ff" stroke="#0000ff" points="326.694,-120.096 316.114,-120.671 324.743,-126.819 326.694,-120.096"/>
<text text-anchor="middle" x="465.043" y="-144.8" font-family="Times New Roman,serif" font-size="14.00">yes, missing</text>
</g>
<!-- 8 -->
<g id="node7" class="node"><title>8</title>
<ellipse fill="none" stroke="black" cx="558.543" cy="-105" rx="102.882" ry="18"/>
<text text-anchor="middle" x="558.543" y="-101.3" font-family="Times New Roman,serif" font-size="14.00">momentum&lt;0.310143799</text>
</g>
<!-- 3&#45;&gt;8 -->
<g id="edge6" class="edge"><title>3&#45;&gt;8</title>
<path fill="none" stroke="#ff0000" d="M558.543,-173.799C558.543,-162.163 558.543,-146.548 558.543,-133.237"/>
<polygon fill="#ff0000" stroke="#ff0000" points="562.043,-133.175 558.543,-123.175 555.043,-133.175 562.043,-133.175"/>
<text text-anchor="middle" x="566.043" y="-144.8" font-family="Times New Roman,serif" font-size="14.00">no</text>
</g>
<!-- 9 -->
<g id="node12" class="node"><title>9</title>
<ellipse fill="none" stroke="black" cx="987.543" cy="-105" rx="102.882" ry="18"/>
<text text-anchor="middle" x="987.543" y="-101.3" font-family="Times New Roman,serif" font-size="14.00">momentum&lt;0.421103776</text>
</g>
<!-- 4&#45;&gt;9 -->
<g id="edge11" class="edge"><title>4&#45;&gt;9</title>
<path fill="none" stroke="#0000ff" d="M1050.93,-174.207C1039.32,-161.715 1023.3,-144.477 1010.27,-130.457"/>
<polygon fill="#0000ff" stroke="#0000ff" points="1012.76,-127.991 1003.39,-123.049 1007.63,-132.757 1012.76,-127.991"/>
<text text-anchor="middle" x="1067.04" y="-144.8" font-family="Times New Roman,serif" font-size="14.00">yes, missing</text>
</g>
<!-- 10 -->
<g id="node13" class="node"><title>10</title>
<ellipse fill="none" stroke="black" cx="1210.54" cy="-105" rx="102.882" ry="18"/>
<text text-anchor="middle" x="1210.54" y="-101.3" font-family="Times New Roman,serif" font-size="14.00">momentum&lt;0.526816964</text>
</g>
<!-- 4&#45;&gt;10 -->
<g id="edge12" class="edge"><title>4&#45;&gt;10</title>
<path fill="none" stroke="#ff0000" d="M1094.31,-174.611C1117.02,-161.206 1149.31,-142.142 1174.1,-127.51"/>
<polygon fill="#ff0000" stroke="#ff0000" points="1176.03,-130.436 1182.86,-122.339 1172.47,-124.408 1176.03,-130.436"/>
<text text-anchor="middle" x="1155.04" y="-144.8" font-family="Times New Roman,serif" font-size="14.00">no</text>
</g>
<!-- 15 -->
<g id="node8" class="node"><title>15</title>
<ellipse fill="none" stroke="black" cx="82.5427" cy="-18" rx="82.5854" ry="18"/>
<text text-anchor="middle" x="82.5427" y="-14.3" font-family="Times New Roman,serif" font-size="14.00">leaf=&#45;0.0416701101</text>
</g>
<!-- 7&#45;&gt;15 -->
<g id="edge7" class="edge"><title>7&#45;&gt;15</title>
<path fill="none" stroke="#0000ff" d="M231.122,-88.0122C201.061,-74.0495 157.315,-53.7303 125.071,-38.7538"/>
<polygon fill="#0000ff" stroke="#0000ff" points="126.427,-35.5244 115.883,-34.4861 123.478,-41.873 126.427,-35.5244"/>
<text text-anchor="middle" x="220.043" y="-57.8" font-family="Times New Roman,serif" font-size="14.00">yes, missing</text>
</g>
<!-- 16 -->
<g id="node9" class="node"><title>16</title>
<ellipse fill="none" stroke="black" cx="265.543" cy="-18" rx="82.5854" ry="18"/>
<text text-anchor="middle" x="265.543" y="-14.3" font-family="Times New Roman,serif" font-size="14.00">leaf=&#45;0.0279578101</text>
</g>
<!-- 7&#45;&gt;16 -->
<g id="edge8" class="edge"><title>7&#45;&gt;16</title>
<path fill="none" stroke="#ff0000" d="M265.543,-86.799C265.543,-75.1626 265.543,-59.5479 265.543,-46.2368"/>
<polygon fill="#ff0000" stroke="#ff0000" points="269.043,-46.1754 265.543,-36.1754 262.043,-46.1755 269.043,-46.1754"/>
<text text-anchor="middle" x="273.043" y="-57.8" font-family="Times New Roman,serif" font-size="14.00">no</text>
</g>
<!-- 17 -->
<g id="node10" class="node"><title>17</title>
<ellipse fill="none" stroke="black" cx="448.543" cy="-18" rx="82.5854" ry="18"/>
<text text-anchor="middle" x="448.543" y="-14.3" font-family="Times New Roman,serif" font-size="14.00">leaf=&#45;0.0215197131</text>
</g>
<!-- 8&#45;&gt;17 -->
<g id="edge9" class="edge"><title>8&#45;&gt;17</title>
<path fill="none" stroke="#0000ff" d="M536.81,-87.2067C519.978,-74.2003 496.488,-56.0486 477.971,-41.7404"/>
<polygon fill="#0000ff" stroke="#0000ff" points="479.909,-38.8142 469.856,-35.4692 475.628,-44.3532 479.909,-38.8142"/>
<text text-anchor="middle" x="545.043" y="-57.8" font-family="Times New Roman,serif" font-size="14.00">yes, missing</text>
</g>
<!-- 18 -->
<g id="node11" class="node"><title>18</title>
<ellipse fill="none" stroke="black" cx="627.543" cy="-18" rx="77.9862" ry="18"/>
<text text-anchor="middle" x="627.543" y="-14.3" font-family="Times New Roman,serif" font-size="14.00">leaf=&#45;0.015709823</text>
</g>
<!-- 8&#45;&gt;18 -->
<g id="edge10" class="edge"><title>8&#45;&gt;18</title>
<path fill="none" stroke="#ff0000" d="M572.506,-86.799C582.485,-74.5062 596.068,-57.7736 607.243,-44.0073"/>
<polygon fill="#ff0000" stroke="#ff0000" points="610.251,-45.8552 613.836,-35.8854 604.816,-41.4434 610.251,-45.8552"/>
<text text-anchor="middle" x="605.043" y="-57.8" font-family="Times New Roman,serif" font-size="14.00">no</text>
</g>
<!-- 19 -->
<g id="node14" class="node"><title>19</title>
<ellipse fill="none" stroke="black" cx="810.543" cy="-18" rx="87.1846" ry="18"/>
<text text-anchor="middle" x="810.543" y="-14.3" font-family="Times New Roman,serif" font-size="14.00">leaf=&#45;0.00955518521</text>
</g>
<!-- 9&#45;&gt;19 -->
<g id="edge13" class="edge"><title>9&#45;&gt;19</title>
<path fill="none" stroke="#0000ff" d="M953.834,-87.8121C925.019,-73.9743 883.427,-54.0012 852.469,-39.1342"/>
<polygon fill="#0000ff" stroke="#0000ff" points="853.758,-35.8707 843.229,-34.6967 850.728,-42.1808 853.758,-35.8707"/>
<text text-anchor="middle" x="945.043" y="-57.8" font-family="Times New Roman,serif" font-size="14.00">yes, missing</text>
</g>
<!-- 20 -->
<g id="node15" class="node"><title>20</title>
<ellipse fill="none" stroke="black" cx="1002.54" cy="-18" rx="87.1846" ry="18"/>
<text text-anchor="middle" x="1002.54" y="-14.3" font-family="Times New Roman,serif" font-size="14.00">leaf=&#45;0.00566432485</text>
</g>
<!-- 9&#45;&gt;20 -->
<g id="edge14" class="edge"><title>9&#45;&gt;20</title>
<path fill="none" stroke="#ff0000" d="M990.578,-86.799C992.632,-75.1626 995.387,-59.5479 997.736,-46.2368"/>
<polygon fill="#ff0000" stroke="#ff0000" points="1001.22,-46.6316 999.512,-36.1754 994.327,-45.415 1001.22,-46.6316"/>
<text text-anchor="middle" x="1004.04" y="-57.8" font-family="Times New Roman,serif" font-size="14.00">no</text>
</g>
<!-- 21 -->
<g id="node16" class="node"><title>21</title>
<ellipse fill="none" stroke="black" cx="1195.54" cy="-18" rx="88.2844" ry="18"/>
<text text-anchor="middle" x="1195.54" y="-14.3" font-family="Times New Roman,serif" font-size="14.00">leaf=0.000339758612</text>
</g>
<!-- 10&#45;&gt;21 -->
<g id="edge15" class="edge"><title>10&#45;&gt;21</title>
<path fill="none" stroke="#0000ff" d="M1207.51,-86.799C1205.45,-75.1626 1202.7,-59.5479 1200.35,-46.2368"/>
<polygon fill="#0000ff" stroke="#0000ff" points="1203.76,-45.415 1198.57,-36.1754 1196.86,-46.6316 1203.76,-45.415"/>
<text text-anchor="middle" x="1239.04" y="-57.8" font-family="Times New Roman,serif" font-size="14.00">yes, missing</text>
</g>
<!-- 22 -->
<g id="node17" class="node"><title>22</title>
<ellipse fill="none" stroke="black" cx="1385.54" cy="-18" rx="83.6854" ry="18"/>
<text text-anchor="middle" x="1385.54" y="-14.3" font-family="Times New Roman,serif" font-size="14.00">leaf=0.00478447601</text>
</g>
<!-- 10&#45;&gt;22 -->
<g id="edge16" class="edge"><title>10&#45;&gt;22</title>
<path fill="none" stroke="#ff0000" d="M1243.87,-87.8121C1272.36,-73.9743 1313.48,-54.0012 1344.09,-39.1342"/>
<polygon fill="#ff0000" stroke="#ff0000" points="1345.76,-42.2141 1353.23,-34.6967 1342.7,-35.9175 1345.76,-42.2141"/>
<text text-anchor="middle" x="1316.04" y="-57.8" font-family="Times New Roman,serif" font-size="14.00">no</text>
</g>
<!-- 11 -->
<g id="node20" class="node"><title>11</title>
<ellipse fill="none" stroke="black" cx="1729.54" cy="-105" rx="102.882" ry="18"/>
<text text-anchor="middle" x="1729.54" y="-101.3" font-family="Times New Roman,serif" font-size="14.00">momentum&lt;0.608045101</text>
</g>
<!-- 5&#45;&gt;11 -->
<g id="edge19" class="edge"><title>5&#45;&gt;11</title>
<path fill="none" stroke="#0000ff" d="M1864.74,-174.812C1837.92,-161.164 1799.39,-141.549 1770.31,-126.75"/>
<polygon fill="#0000ff" stroke="#0000ff" points="1771.73,-123.545 1761.23,-122.128 1768.55,-129.783 1771.73,-123.545"/>
<text text-anchor="middle" x="1858.04" y="-144.8" font-family="Times New Roman,serif" font-size="14.00">yes, missing</text>
</g>
<!-- 12 -->
<g id="node21" class="node"><title>12</title>
<ellipse fill="none" stroke="black" cx="1952.54" cy="-105" rx="102.882" ry="18"/>
<text text-anchor="middle" x="1952.54" y="-101.3" font-family="Times New Roman,serif" font-size="14.00">momentum&lt;0.684998035</text>
</g>
<!-- 5&#45;&gt;12 -->
<g id="edge20" class="edge"><title>5&#45;&gt;12</title>
<path fill="none" stroke="#ff0000" d="M1907.88,-173.799C1915.85,-161.702 1926.65,-145.305 1935.63,-131.667"/>
<polygon fill="#ff0000" stroke="#ff0000" points="1938.65,-133.452 1941.23,-123.175 1932.8,-129.6 1938.65,-133.452"/>
<text text-anchor="middle" x="1936.04" y="-144.8" font-family="Times New Roman,serif" font-size="14.00">no</text>
</g>
<!-- 13 -->
<g id="node26" class="node"><title>13</title>
<ellipse fill="none" stroke="black" cx="2361.54" cy="-105" rx="77.1866" ry="18"/>
<text text-anchor="middle" x="2361.54" y="-101.3" font-family="Times New Roman,serif" font-size="14.00">ema&lt;0.764107347</text>
</g>
<!-- 6&#45;&gt;13 -->
<g id="edge25" class="edge"><title>6&#45;&gt;13</title>
<path fill="none" stroke="#0000ff" d="M2361.54,-173.799C2361.54,-162.163 2361.54,-146.548 2361.54,-133.237"/>
<polygon fill="#0000ff" stroke="#0000ff" points="2365.04,-133.175 2361.54,-123.175 2358.04,-133.175 2365.04,-133.175"/>
<text text-anchor="middle" x="2396.04" y="-144.8" font-family="Times New Roman,serif" font-size="14.00">yes, missing</text>
</g>
<!-- 14 -->
<g id="node27" class="node"><title>14</title>
<ellipse fill="none" stroke="black" cx="2637.54" cy="-105" rx="102.882" ry="18"/>
<text text-anchor="middle" x="2637.54" y="-101.3" font-family="Times New Roman,serif" font-size="14.00">momentum&lt;0.886319458</text>
</g>
<!-- 6&#45;&gt;14 -->
<g id="edge26" class="edge"><title>6&#45;&gt;14</title>
<path fill="none" stroke="#ff0000" d="M2409.93,-176.097C2457.18,-161.545 2529.13,-139.389 2579.45,-123.892"/>
<polygon fill="#ff0000" stroke="#ff0000" points="2580.68,-127.174 2589.21,-120.886 2578.62,-120.484 2580.68,-127.174"/>
<text text-anchor="middle" x="2524.04" y="-144.8" font-family="Times New Roman,serif" font-size="14.00">no</text>
</g>
<!-- 23 -->
<g id="node22" class="node"><title>23</title>
<ellipse fill="none" stroke="black" cx="1571.54" cy="-18" rx="83.6854" ry="18"/>
<text text-anchor="middle" x="1571.54" y="-14.3" font-family="Times New Roman,serif" font-size="14.00">leaf=0.00900616776</text>
</g>
<!-- 11&#45;&gt;23 -->
<g id="edge21" class="edge"><title>11&#45;&gt;23</title>
<path fill="none" stroke="#0000ff" d="M1699.08,-87.6111C1673.7,-73.9582 1637.41,-54.4357 1610.03,-39.7038"/>
<polygon fill="#0000ff" stroke="#0000ff" points="1611.58,-36.5623 1601.11,-34.9068 1608.26,-42.7268 1611.58,-36.5623"/>
<text text-anchor="middle" x="1695.04" y="-57.8" font-family="Times New Roman,serif" font-size="14.00">yes, missing</text>
</g>
<!-- 24 -->
<g id="node23" class="node"><title>24</title>
<ellipse fill="none" stroke="black" cx="1752.54" cy="-18" rx="79.0865" ry="18"/>
<text text-anchor="middle" x="1752.54" y="-14.3" font-family="Times New Roman,serif" font-size="14.00">leaf=0.0124333045</text>
</g>
<!-- 11&#45;&gt;24 -->
<g id="edge22" class="edge"><title>11&#45;&gt;24</title>
<path fill="none" stroke="#ff0000" d="M1734.2,-86.799C1737.38,-75.0474 1741.65,-59.2383 1745.28,-45.8421"/>
<polygon fill="#ff0000" stroke="#ff0000" points="1748.66,-46.7425 1747.9,-36.1754 1741.9,-44.9141 1748.66,-46.7425"/>
<text text-anchor="middle" x="1750.04" y="-57.8" font-family="Times New Roman,serif" font-size="14.00">no</text>
</g>
<!-- 25 -->
<g id="node24" class="node"><title>25</title>
<ellipse fill="none" stroke="black" cx="1929.54" cy="-18" rx="79.0865" ry="18"/>
<text text-anchor="middle" x="1929.54" y="-14.3" font-family="Times New Roman,serif" font-size="14.00">leaf=0.0164264627</text>
</g>
<!-- 12&#45;&gt;25 -->
<g id="edge23" class="edge"><title>12&#45;&gt;25</title>
<path fill="none" stroke="#0000ff" d="M1947.89,-86.799C1944.71,-75.0474 1940.43,-59.2383 1936.81,-45.8421"/>
<polygon fill="#0000ff" stroke="#0000ff" points="1940.18,-44.9141 1934.19,-36.1754 1933.42,-46.7425 1940.18,-44.9141"/>
<text text-anchor="middle" x="1977.04" y="-57.8" font-family="Times New Roman,serif" font-size="14.00">yes, missing</text>
</g>
<!-- 26 -->
<g id="node25" class="node"><title>26</title>
<ellipse fill="none" stroke="black" cx="2106.54" cy="-18" rx="79.0865" ry="18"/>
<text text-anchor="middle" x="2106.54" y="-14.3" font-family="Times New Roman,serif" font-size="14.00">leaf=0.0203621089</text>
</g>
<!-- 12&#45;&gt;26 -->
<g id="edge24" class="edge"><title>12&#45;&gt;26</title>
<path fill="none" stroke="#ff0000" d="M1982.24,-87.6111C2006.86,-74.0176 2042.03,-54.6053 2068.68,-39.8962"/>
<polygon fill="#ff0000" stroke="#ff0000" points="2070.66,-42.8034 2077.72,-34.9068 2067.28,-36.6749 2070.66,-42.8034"/>
<text text-anchor="middle" x="2047.04" y="-57.8" font-family="Times New Roman,serif" font-size="14.00">no</text>
</g>
<!-- 27 -->
<g id="node28" class="node"><title>27</title>
<ellipse fill="none" stroke="black" cx="2283.54" cy="-18" rx="79.0865" ry="18"/>
<text text-anchor="middle" x="2283.54" y="-14.3" font-family="Times New Roman,serif" font-size="14.00">leaf=0.0245146919</text>
</g>
<!-- 13&#45;&gt;27 -->
<g id="edge27" class="edge"><title>13&#45;&gt;27</title>
<path fill="none" stroke="#0000ff" d="M2346.13,-87.2067C2334.59,-74.6335 2318.64,-57.252 2305.73,-43.1825"/>
<polygon fill="#0000ff" stroke="#0000ff" points="2308.26,-40.7599 2298.92,-35.7584 2303.1,-45.4928 2308.26,-40.7599"/>
<text text-anchor="middle" x="2362.04" y="-57.8" font-family="Times New Roman,serif" font-size="14.00">yes, missing</text>
</g>
<!-- 28 -->
<g id="node29" class="node"><title>28</title>
<ellipse fill="none" stroke="black" cx="2460.54" cy="-18" rx="79.0865" ry="18"/>
<text text-anchor="middle" x="2460.54" y="-14.3" font-family="Times New Roman,serif" font-size="14.00">leaf=0.0288135242</text>
</g>
<!-- 13&#45;&gt;28 -->
<g id="edge28" class="edge"><title>13&#45;&gt;28</title>
<path fill="none" stroke="#ff0000" d="M2381.1,-87.2067C2396.11,-74.3175 2417.01,-56.3753 2433.61,-42.1281"/>
<polygon fill="#ff0000" stroke="#ff0000" points="2436.05,-44.6389 2441.36,-35.4692 2431.49,-39.3279 2436.05,-44.6389"/>
<text text-anchor="middle" x="2425.04" y="-57.8" font-family="Times New Roman,serif" font-size="14.00">no</text>
</g>
<!-- 29 -->
<g id="node30" class="node"><title>29</title>
<ellipse fill="none" stroke="black" cx="2637.54" cy="-18" rx="79.0865" ry="18"/>
<text text-anchor="middle" x="2637.54" y="-14.3" font-family="Times New Roman,serif" font-size="14.00">leaf=0.0347875543</text>
</g>
<!-- 14&#45;&gt;29 -->
<g id="edge29" class="edge"><title>14&#45;&gt;29</title>
<path fill="none" stroke="#0000ff" d="M2637.54,-86.799C2637.54,-75.1626 2637.54,-59.5479 2637.54,-46.2368"/>
<polygon fill="#0000ff" stroke="#0000ff" points="2641.04,-46.1754 2637.54,-36.1754 2634.04,-46.1755 2641.04,-46.1754"/>
<text text-anchor="middle" x="2672.04" y="-57.8" font-family="Times New Roman,serif" font-size="14.00">yes, missing</text>
</g>
<!-- 30 -->
<g id="node31" class="node"><title>30</title>
<ellipse fill="none" stroke="black" cx="2814.54" cy="-18" rx="79.0865" ry="18"/>
<text text-anchor="middle" x="2814.54" y="-14.3" font-family="Times New Roman,serif" font-size="14.00">leaf=0.0436423346</text>
</g>
<!-- 14&#45;&gt;30 -->
<g id="edge30" class="edge"><title>14&#45;&gt;30</title>
<path fill="none" stroke="#ff0000" d="M2670.98,-87.9775C2683.4,-82.0215 2697.62,-75.2048 2710.54,-69 2731.18,-59.0894 2754.13,-48.0616 2773.2,-38.8897"/>
<polygon fill="#ff0000" stroke="#ff0000" points="2774.73,-42.0376 2782.22,-34.5492 2771.69,-35.7293 2774.73,-42.0376"/>
<text text-anchor="middle" x="2747.04" y="-57.8" font-family="Times New Roman,serif" font-size="14.00">no</text>
</g>
</g>
</svg>
